<?xml version="1.0" encoding="UTF-8" standalone="no"?>
<!-- Created with Inkscape (http://www.inkscape.org/) -->

<svg
   width="25.226368mm"
   height="25.350391mm"
   viewBox="0 0 25.226368 25.350391"
   version="1.1"
   id="svg1"
   xmlns:inkscape="http://www.inkscape.org/namespaces/inkscape"
   xmlns:sodipodi="http://sodipodi.sourceforge.net/DTD/sodipodi-0.dtd"
   xmlns="http://www.w3.org/2000/svg"
   xmlns:svg="http://www.w3.org/2000/svg">
  <sodipodi:namedview
     id="namedview1"
     pagecolor="#505050"
     bordercolor="#ffffff"
     borderopacity="1"
     inkscape:showpageshadow="0"
     inkscape:pageopacity="0"
     inkscape:pagecheckerboard="1"
     inkscape:deskcolor="#505050"
     inkscape:document-units="mm">
    <inkscape:page
       x="0"
       y="0"
       width="25.226368"
       height="25.350391"
       id="page2"
       margin="0"
       bleed="0" />
  </sodipodi:namedview>
  <defs
     id="defs1" />
  <g
     inkscape:label="Слой 1"
     inkscape:groupmode="layer"
     id="layer1"
     transform="translate(-46.217333,-84.08293)">
    <path
       d="m 233.01329,413.60626 c -11.37913,0 -17.2711,0 -17.2711,0 h -41.0625 v -2.71875 c 3.0625,0 5.5,-0.1875 7.3125,-0.5625 1.8125,-0.375 3.1875,-1.0625 4.125,-2.0625 0.9375,-1.0625 1.53125,-2.5 1.78125,-4.3125 0.25,-1.875 0.375,-4.28125 0.375,-7.21875 v -62.0625 c 0,-3 -0.125,-5.40625 -0.375,-7.21875 -0.25,-1.875 -0.84375,-3.34375 -1.78125,-4.40625 -0.9375,-1.0625 -2.3125,-1.78125 -4.125,-2.15625 -1.8125,-0.375 -4.25,-0.5625 -7.3125,-0.5625 v -2.53125 h 36.09375 c 2.75,0 5.625,0.0937 8.625,0.28125 3,0.1875 5.90625,0.59375 8.71875,1.21875 2.875,0.625 5.59375,1.5 8.15625,2.625 2.5625,1.0625 4.8125,2.53125 6.75,4.40625 1.9375,1.8125 3.46875,4.03125 4.59375,6.65625 1.125,2.625 1.6875,5.75 1.6875,9.375 0,3.6875 -0.59375,6.90625 -1.78125,9.65625 -1.1875,2.75 -2.84375,5.125 -4.96875,7.125 -2.0625,1.9375 -4.53125,3.5625 -7.40625,4.875 -2.875,1.25 -6.83103,3.08103 -10.14353,3.76853 9.91407,9.56931 17.35502,28.30114 30.76853,38.13772 1.875,1.375 3.9375,2.5 6.1875,3.375 2.3125,0.8125 5,1.34375 8.0625,1.59375 v 2.71875 z"
       id="text1"
       style="font-size:192px;font-family:Scheherazade;-inkscape-font-specification:Scheherazade;white-space:pre"
       transform="scale(0.26458333)"
       aria-label="R"
       sodipodi:nodetypes="ccccsccsscssccsscccssscccscccc" />
  </g>
</svg>
